<svg width="24" height="24" viewBox="0 0 24 24" fill="none" xmlns="http://www.w3.org/2000/svg">
<path d="M11.9365 7.06879C8.97358 7.06879 6.51855 9.48148 6.51855 12.4868C6.51855 15.4921 8.93125 17.9048 11.9365 17.9048C14.9418 17.9048 17.3545 15.4497 17.3545 12.4868C17.3545 9.52381 14.8995 7.06879 11.9365 7.06879ZM11.9365 15.9577C10.0318 15.9577 8.46564 14.3915 8.46564 12.4868C8.46564 10.582 10.0318 9.01588 11.9365 9.01588C13.8413 9.01588 15.4074 10.582 15.4074 12.4868C15.4074 14.3915 13.8413 15.9577 11.9365 15.9577Z" fill="#FFFEFE"/>
<path d="M17.5659 8.16932C18.2438 8.16932 18.7934 7.61974 18.7934 6.94181C18.7934 6.26387 18.2438 5.71429 17.5659 5.71429C16.888 5.71429 16.3384 6.26387 16.3384 6.94181C16.3384 7.61974 16.888 8.16932 17.5659 8.16932Z" fill="#FFFEFE"/>
<path d="M20.7406 3.76719C19.64 2.62433 18.0739 2.03174 16.2961 2.03174H7.57653C3.89399 2.03174 1.43896 4.48677 1.43896 8.16931V16.8466C1.43896 18.6667 2.03156 20.2328 3.21674 21.3757C4.3596 22.4762 5.88341 23.0265 7.61886 23.0265H16.2538C18.0739 23.0265 19.5977 22.4339 20.6982 21.3757C21.8411 20.2751 22.4337 18.709 22.4337 16.8889V8.16931C22.4337 6.39153 21.8411 4.86772 20.7406 3.76719ZM20.5712 16.8889C20.5712 18.2011 20.1056 19.2593 19.3437 19.9788C18.5818 20.6984 17.5236 21.0794 16.2538 21.0794H7.61886C6.34902 21.0794 5.29082 20.6984 4.52891 19.9788C3.76701 19.2169 3.38606 18.1587 3.38606 16.8466V8.16931C3.38606 6.89946 3.76701 5.84126 4.52891 5.07936C5.24849 4.35978 6.34902 3.97883 7.61886 3.97883H16.3384C17.6083 3.97883 18.6665 4.35978 19.4284 5.12169C20.148 5.88359 20.5712 6.94179 20.5712 8.16931V16.8889Z" fill="#FFFEFE"/>
</svg>
