<svg width="148" height="63" viewBox="0 0 148 63" fill="none" xmlns="http://www.w3.org/2000/svg">
<rect y="8" width="117" height="47" fill="black"/>
<path d="M138.704 33.3615C138.704 46.5789 128.808 57.273 116.626 57.273C104.444 57.273 94.5487 46.5789 94.5487 33.3615C94.5487 20.1442 104.444 9.45014 116.626 9.45014C128.808 9.45014 138.704 20.1442 138.704 33.3615Z" fill="white" stroke="black" stroke-width="0.3"/>
<g clip-path="url(#clip0_61_13)">
<path d="M116.483 52.7977L117.279 48.2033C117.483 46.9141 117.359 45.5944 116.92 44.3655L114.935 38.8194C114.205 36.7769 112.888 34.9954 111.149 33.6986L106.326 30.095C106.22 30.0165 106.107 29.9502 105.986 29.8973L104.473 24.9442C104.338 24.5031 104.043 24.1283 103.646 23.893C103.249 23.6577 102.779 23.5788 102.327 23.6717C101.875 23.7647 101.474 24.0228 101.202 24.3956C100.93 24.7685 100.807 25.2292 100.857 25.6879L101.871 34.8925C102.154 37.5198 103.462 39.9293 105.512 41.597L110.154 45.3958L110.012 47.0637C110.003 47.1764 110.038 47.2883 110.111 47.3747C110.184 47.461 110.289 47.5149 110.401 47.5243C110.514 47.5338 110.626 47.4981 110.712 47.4251C110.799 47.3521 110.853 47.2478 110.862 47.1351L111.019 45.2409C111.025 45.172 111.015 45.1025 110.988 45.0388C110.961 44.975 110.918 44.9189 110.864 44.8755L106.05 40.9363C104.175 39.4091 102.978 37.2034 102.719 34.7985L101.703 25.5921C101.688 25.4542 101.702 25.3147 101.744 25.1824C101.786 25.0501 101.854 24.9279 101.946 24.8235C102.037 24.7192 102.149 24.6349 102.275 24.5761C102.4 24.5173 102.537 24.4852 102.676 24.4818C102.894 24.4777 103.108 24.5448 103.285 24.6729C103.462 24.801 103.592 24.9832 103.657 25.1919L105.051 29.7588C104.749 29.7955 104.461 29.9098 104.216 30.0907C103.971 30.2716 103.777 30.5128 103.653 30.7909C103.529 31.069 103.478 31.3746 103.507 31.6778C103.536 31.981 103.643 32.2715 103.818 32.5212L109.591 40.0267C109.624 40.0733 109.666 40.1127 109.715 40.1426C109.764 40.1725 109.819 40.1922 109.875 40.2006C109.932 40.209 109.99 40.206 110.045 40.1916C110.101 40.1772 110.153 40.1518 110.198 40.1169C110.243 40.0821 110.281 40.0384 110.31 39.9885C110.338 39.9387 110.356 39.8837 110.362 39.8268C110.369 39.7698 110.364 39.7122 110.348 39.6573C110.331 39.6023 110.304 39.5512 110.268 39.507L104.508 32.0246C104.405 31.8716 104.35 31.6909 104.352 31.5062C104.353 31.3216 104.41 31.1417 104.516 30.9902C104.621 30.8388 104.77 30.7229 104.943 30.6578C105.116 30.5927 105.304 30.5815 105.484 30.6257C105.509 30.6356 105.534 30.643 105.561 30.6477C105.651 30.6778 105.737 30.722 105.814 30.7788L110.637 34.3819C112.243 35.5773 113.459 37.2219 114.132 39.108L116.12 44.6546C116.51 45.7469 116.62 46.9196 116.44 48.0655L115.644 52.6531C115.633 52.7206 115.638 52.7898 115.658 52.8551C115.679 52.9203 115.715 52.9797 115.763 53.0283C115.825 53.0906 115.905 53.1319 115.991 53.1466C116.047 53.156 116.103 53.1545 116.158 53.142C116.212 53.1296 116.264 53.1065 116.31 53.0741C116.355 53.0416 116.394 53.0006 116.424 52.9531C116.454 52.9057 116.474 52.8529 116.483 52.7977Z" fill="black"/>
<path d="M115.415 14.0351C115.211 15.3245 115.335 16.6444 115.775 17.8736L117.759 23.4196C118.306 24.9529 119.187 26.3454 120.338 27.4966C120.715 27.8737 121.119 28.2231 121.546 28.5423L126.369 32.1453C126.474 32.2237 126.588 32.29 126.708 32.3429L128.219 37.2984C128.307 37.5877 128.466 37.8507 128.68 38.0641C128.951 38.3365 129.3 38.518 129.678 38.5833C130.057 38.6487 130.446 38.5947 130.793 38.4288C131.14 38.2629 131.426 37.9934 131.613 37.6575C131.799 37.3216 131.877 36.936 131.834 36.5542L130.825 27.349C130.543 24.7204 129.234 22.3097 127.183 20.642L122.541 16.8444L122.683 15.1771C122.688 15.0666 122.651 14.9584 122.578 14.8751C122.505 14.7917 122.403 14.7399 122.293 14.7304C122.183 14.7209 122.073 14.7545 121.987 14.8242C121.901 14.8939 121.846 14.9941 121.832 15.1039L121.675 16.9987C121.668 17.0678 121.679 17.1376 121.706 17.2016C121.733 17.2655 121.776 17.3216 121.83 17.3648L126.644 21.3027C128.519 22.8304 129.717 25.0361 129.976 27.4411L130.989 36.6457C131.004 36.7836 130.991 36.9232 130.949 37.0556C130.908 37.188 130.839 37.3103 130.748 37.4148C130.657 37.5193 130.545 37.6037 130.419 37.6625C130.293 37.7213 130.157 37.7534 130.018 37.7566C129.8 37.7607 129.586 37.6936 129.409 37.5655C129.232 37.4374 129.102 37.2552 129.037 37.0465L127.642 32.479C127.944 32.4422 128.232 32.3278 128.477 32.1469C128.722 31.966 128.916 31.7247 129.041 31.4466C129.165 31.1685 129.215 30.8629 129.186 30.5597C129.157 30.2564 129.051 29.9658 128.876 29.716L123.104 22.2111C123.033 22.1255 122.933 22.0706 122.823 22.058C122.712 22.0454 122.602 22.0761 122.514 22.1435C122.426 22.211 122.368 22.31 122.352 22.4195C122.335 22.5291 122.362 22.6408 122.427 22.7308L128.184 30.215C128.287 30.3677 128.342 30.5479 128.341 30.7321C128.34 30.9163 128.283 31.0959 128.178 31.2472C128.073 31.3985 127.924 31.5146 127.752 31.5801C127.58 31.6457 127.392 31.6577 127.213 31.6145C127.185 31.6036 127.156 31.5954 127.127 31.5901C127.038 31.5596 126.955 31.5156 126.88 31.4596L122.056 27.8559C120.451 26.6596 119.235 25.0153 118.561 23.1298L116.575 17.5844C116.185 16.4917 116.074 15.3187 116.253 14.1723L117.052 9.58775C117.062 9.53259 117.06 9.47608 117.048 9.42146C117.036 9.36684 117.013 9.31516 116.981 9.26939C116.948 9.22362 116.907 9.18464 116.86 9.15469C116.813 9.12474 116.76 9.10439 116.705 9.09482C116.65 9.08524 116.593 9.08663 116.539 9.09889C116.484 9.11116 116.432 9.13406 116.387 9.16629C116.341 9.19852 116.302 9.23946 116.272 9.28675C116.242 9.33405 116.222 9.38678 116.212 9.44194L115.415 14.0351Z" fill="black"/>
<g clip-path="url(#clip1_61_13)">
<path d="M113.351 31.3107C113.425 31.9727 113.509 32.7241 114.076 33.6207C114.334 34.0594 114.715 34.4128 115.172 34.6372C115.629 34.8616 116.142 34.9471 116.647 34.8832C116.682 34.8798 116.717 34.8693 116.748 34.8525C116.779 34.8357 116.807 34.8128 116.829 34.7852C116.852 34.7576 116.868 34.7258 116.878 34.6918C116.888 34.6577 116.891 34.6219 116.888 34.5866C116.883 34.551 116.872 34.5165 116.855 34.4852C116.837 34.4539 116.814 34.4263 116.786 34.404C116.758 34.3817 116.726 34.3652 116.691 34.3553C116.657 34.3455 116.621 34.3426 116.585 34.3467C116.182 34.4001 115.772 34.3324 115.408 34.1524C115.044 33.9723 114.741 33.688 114.539 33.3355C114.039 32.5422 113.964 31.8833 113.894 31.2495C113.817 30.5622 113.742 29.9078 113.113 29.2754C114.232 29.3393 116.239 29.5613 117.368 30.4379C117.705 30.6845 117.971 31.0158 118.14 31.3981C118.308 31.7805 118.372 32.2005 118.326 32.6157C118.32 32.6768 118.334 32.7383 118.367 32.7902C118.4 32.8421 118.449 32.8815 118.507 32.9018C118.565 32.9221 118.629 32.9223 118.687 32.9023C118.745 32.8823 118.794 32.8432 118.828 32.7915C118.934 32.6256 119.064 32.4756 119.212 32.3458C119.828 31.7983 120.387 31.6413 120.928 31.4881C121.512 31.3247 122.057 31.1694 122.514 30.572C122.62 31.5701 122.69 33.2903 122.107 34.3689C121.87 34.8397 121.462 35.2025 120.966 35.3834C120.471 35.5644 119.925 35.55 119.44 35.3432C119.375 35.3118 119.299 35.3076 119.231 35.3317C119.162 35.3558 119.106 35.4062 119.074 35.4718C119.043 35.5373 119.039 35.6127 119.063 35.6813C119.087 35.7499 119.137 35.8061 119.203 35.8376C119.638 36.0301 120.119 36.0976 120.59 36.0325C121.011 35.9788 121.412 35.8234 121.759 35.5798C122.106 35.3363 122.388 35.0118 122.581 34.6346C123.538 32.8741 122.966 29.8162 122.941 29.6863C122.931 29.6281 122.901 29.575 122.858 29.5349C122.815 29.4948 122.759 29.4698 122.701 29.4637C122.642 29.4577 122.583 29.4709 122.532 29.5014C122.481 29.5318 122.442 29.5779 122.42 29.6327C122.008 30.619 121.492 30.7644 120.78 30.9659C120.209 31.1277 119.562 31.31 118.855 31.936C118.738 31.1687 118.325 30.4778 117.705 30.0106C115.933 28.6319 112.439 28.7078 112.291 28.7107C112.232 28.7133 112.176 28.7342 112.131 28.7703C112.085 28.8065 112.052 28.8562 112.036 28.9123C112.02 28.969 112.024 29.0291 112.045 29.0838C112.066 29.1385 112.105 29.1848 112.155 29.2159C113.189 29.863 113.257 30.4698 113.351 31.3107Z" fill="black"/>
<path d="M118.072 40.331C118.081 40.4028 118.119 40.4678 118.176 40.5119C118.234 40.5559 118.306 40.5754 118.378 40.5659C118.45 40.5564 118.515 40.5188 118.559 40.4613C118.603 40.4039 118.623 40.3312 118.613 40.2595L118.22 37.2853C118.149 36.8328 118.196 36.3696 118.357 35.9407C118.518 35.5118 118.786 35.1316 119.137 34.8371C119.49 34.5257 119.895 34.279 120.333 34.1086C120.401 34.085 120.457 34.0353 120.489 33.9705C120.52 33.9058 120.525 33.8311 120.502 33.7629C120.479 33.6946 120.429 33.6383 120.365 33.6062C120.3 33.5742 120.226 33.5689 120.157 33.5917C120.135 33.5946 118.656 34.123 117.983 35.4571L117.956 35.2564C117.694 33.2711 115.988 31.9443 115.916 31.8947C115.858 31.8553 115.788 31.8396 115.719 31.8506C115.65 31.8616 115.588 31.8987 115.545 31.9541C115.503 32.0095 115.483 32.0791 115.49 32.1485C115.498 32.2179 115.531 32.282 115.584 32.3274C115.599 32.339 117.184 33.5776 117.416 35.3338L118.072 40.331Z" fill="black"/>
</g>
</g>
<path d="M15.7228 36V27.628H12.3348V26.13H20.9028V27.628H17.5148V36H15.7228ZM30.2001 36.14C28.8467 36.14 27.8107 35.79 27.0921 35.09C26.3827 34.3807 26.0281 33.3353 26.0281 31.954V26.13H27.8201V31.94C27.8201 32.8267 28.0207 33.494 28.4221 33.942C28.8327 34.3807 29.4254 34.6 30.2001 34.6C31.7774 34.6 32.5661 33.7133 32.5661 31.94V26.13H34.3441V31.954C34.3441 33.3353 33.9941 34.3807 33.2941 35.09C32.5941 35.79 31.5627 36.14 30.2001 36.14ZM40.494 36V26.13H41.838L47.144 33.018V26.13H48.81V36H47.48L42.16 29.084V36H40.494ZM59.7727 36.14C58.6807 36.14 57.7567 35.9347 57.0007 35.524C56.254 35.1133 55.6847 34.53 55.2927 33.774C54.9007 33.018 54.7047 32.122 54.7047 31.086C54.7047 30.0407 54.9053 29.14 55.3067 28.384C55.708 27.6187 56.2867 27.0307 57.0427 26.62C57.7987 26.2 58.704 25.99 59.7587 25.99C60.4493 25.99 61.098 26.0927 61.7047 26.298C62.3113 26.494 62.8153 26.7693 63.2167 27.124L62.6147 28.524C62.176 28.1787 61.728 27.9313 61.2707 27.782C60.8133 27.6327 60.3093 27.558 59.7587 27.558C58.7133 27.558 57.92 27.8613 57.3787 28.468C56.8467 29.0747 56.5807 29.9473 56.5807 31.086C56.5807 32.234 56.856 33.1067 57.4067 33.704C57.9573 34.3013 58.774 34.6 59.8567 34.6C60.1647 34.6 60.4773 34.5767 60.7947 34.53C61.1213 34.474 61.4433 34.3947 61.7607 34.292V31.996H59.4927V30.666H63.2587V35.412C62.8013 35.636 62.26 35.8133 61.6347 35.944C61.0093 36.0747 60.3887 36.14 59.7727 36.14ZM68.3313 36L72.7973 26.13H74.2673L78.7333 36H76.9133L75.9333 33.718H71.1173L70.1513 36H68.3313ZM73.5113 28.076L71.7333 32.29H75.3173L73.5393 28.076H73.5113Z" fill="white"/>
<defs>
<clipPath id="clip0_61_13">
<rect width="44.173" height="44.173" fill="white" transform="translate(116.24) rotate(45)"/>
</clipPath>
<clipPath id="clip1_61_13">
<rect width="15" height="15" fill="white" transform="translate(110.664 27.6925) rotate(-7.52799)"/>
</clipPath>
</defs>
</svg>
